<svg width="48" height="48" viewBox="0 0 48 48" fill="none" xmlns="http://www.w3.org/2000/svg">
<path fill-rule="evenodd" clip-rule="evenodd" d="M16.7197 0.00184665C11.9067 0.00184665 9.49842 0.0018467 6.92575 0.801447C4.0871 1.83003 1.84871 4.06818 0.82001 6.91017C0 9.50843 0 11.9128 0 16.727V31.2527C0 36.0929 0 38.4768 0.799694 41.0695C1.8284 43.9096 4.06679 46.1478 6.90542 47.1763C9.50211 48 11.9067 48 16.7197 48H31.262C36.0804 48 38.4832 48 41.0743 47.1763C43.9147 46.1478 46.1513 43.9096 47.18 41.0695C48 38.4712 48 36.0669 48 31.2527V16.7473C48 11.9275 48 9.52318 47.18 6.93049C46.1513 4.09033 43.9129 1.8522 41.0743 0.823608C38.4592 0 36.0804 0 31.238 0H16.7178L16.7197 0.00184665Z" fill="#00D633"/>
<path d="M25.942 21.669C30.9997 22.7526 33.3117 24.8476 33.3117 28.3876C33.3117 32.8254 29.6977 36.1012 24.0558 36.448L23.5054 39.0729C23.4515 39.3295 23.2253 39.5133 22.9631 39.5133H18.6228C18.2651 39.5133 18.0011 39.1794 18.0838 38.8314L18.7803 35.8959C15.9838 35.1003 13.7335 33.5526 12.4217 31.6423C12.2565 31.4019 12.3113 31.0732 12.5416 30.8941L15.5753 28.5349C15.8254 28.3404 16.1838 28.3974 16.3686 28.6546C17.976 30.8917 20.4422 32.2165 23.4131 32.2165C26.0864 32.2165 28.1094 30.9162 28.1094 29.0379C28.1094 27.5929 27.098 26.9428 23.7021 26.2203C17.8496 24.9922 15.5375 22.8249 15.5375 19.2849C15.5375 15.1776 18.9899 12.0749 24.1973 11.6719L24.7658 8.96082C24.8195 8.70424 25.0459 8.52051 25.308 8.52051H29.5901C29.9434 8.52051 30.2064 8.84661 30.1317 9.1918L29.4734 12.2295C31.7142 12.9192 33.5388 14.1524 34.6746 15.6741C34.8506 15.91 34.8053 16.2439 34.5777 16.4305L31.8099 18.6999C31.5694 18.8971 31.2182 18.8541 31.0228 18.6123C29.616 16.8726 27.4015 15.8893 25.0026 15.8893C22.3292 15.8893 20.6675 17.0452 20.6675 18.7069C20.6675 20.0796 21.968 20.802 25.942 21.669Z" fill="white"/>
</svg>
