<svg width="48" height="48" viewBox="0 0 500 500" fill="none" xmlns="http://www.w3.org/2000/svg">
<circle cx="250" cy="250" r="250" fill="#D6FF34"/>
<path fill-rule="evenodd" clip-rule="evenodd" d="M332.126 161.334C283.595 161.334 244.252 201.031 244.252 250C244.252 298.97 283.595 338.667 332.126 338.667C380.657 338.667 419.999 298.97 419.999 250C419.999 201.031 380.657 161.334 332.126 161.334ZM82.2694 178.879C79.6016 174.197 82.9507 168.356 88.3027 168.356L143.934 168.356H197.292L244.423 168.356C249.387 168.356 252.755 173.45 250.849 178.075L188.612 329.058C187.533 331.677 184.998 333.384 182.186 333.384H120.629C115.665 333.384 112.297 328.289 114.203 323.664L132.795 278.56C134.457 274.53 134.167 269.95 132.01 266.166L82.2694 178.879ZM255.289 166.894C255.289 166.836 255.348 166.796 255.401 166.818C255.443 166.836 255.462 166.884 255.445 166.925C255.411 167.008 255.289 166.983 255.289 166.894Z" fill="black"/>
</svg>
